<svg width="48" height="60" viewBox="0 0 48 60" fill="none" xmlns="http://www.w3.org/2000/svg">
<path d="M29.5396 13.8456C23.4224 13.8456 11.1689 7.64691 11.1689 0H11.0783C11.0783 6.12023 13.0233 11.9898 16.4853 16.3175C19.9474 20.6452 24.6429 23.0767 29.5391 23.0769C32.4768 23.0769 35.2943 24.5356 37.3717 27.1322C39.4491 29.7288 40.6161 33.2507 40.6161 36.9228C40.6167 40.5949 39.4502 44.1173 37.3733 46.7143C35.2964 49.3116 32.4791 50.7709 29.5414 50.7718C26.6035 50.7724 23.7858 49.3142 21.7081 46.7181C19.6304 44.1219 18.4628 40.6004 18.4622 36.9283C18.4621 33.8977 17.9845 30.8968 17.0567 28.0971C16.1288 25.2973 14.7689 22.7533 13.0545 20.6105C11.3402 18.4676 9.30493 16.7679 7.06502 15.6082C4.82513 14.4486 2.42441 13.8518 0 13.8519V13.9643C6.11637 13.9643 11.0753 29.2745 11.0776 36.9225H11.0765C11.0765 41.4868 12.1591 45.9484 14.1876 49.7434C16.2162 53.5384 19.0994 56.4963 22.4728 58.243C25.8461 59.9899 29.5581 60.4471 33.1394 59.5566C36.7204 58.6664 40.01 56.4686 42.5921 53.2416C45.174 50.0143 46.9324 45.9026 47.645 41.4259C48.3577 36.9496 47.9921 32.3097 46.595 28.0928C45.198 23.8759 42.8319 20.2717 39.7961 17.7357C36.7601 15.1997 33.1908 13.8459 29.5396 13.8456Z" fill="url(#paint0_linear)"/>
<defs>
<linearGradient id="paint0_linear" x1="38.256" y1="51.9" x2="1.7877" y2="11.8288" gradientUnits="userSpaceOnUse">
<stop offset="0.295" stop-color="#E73959"/>
<stop offset="0.384" stop-color="#E73D58"/>
<stop offset="0.477" stop-color="#E74955"/>
<stop offset="0.571" stop-color="#E95E51"/>
<stop offset="0.666" stop-color="#EA7B4B"/>
<stop offset="0.761" stop-color="#EDA044"/>
<stop offset="0.857" stop-color="#EFCE3B"/>
<stop offset="0.868" stop-color="#F0D43A"/>
</linearGradient>
</defs>
</svg>
