<svg width="24" height="24" viewBox="0 0 24 24" fill="none" xmlns="http://www.w3.org/2000/svg">
<path d="M10.8586 4.71246C11.2178 3.60689 12.7819 3.60689 13.1412 4.71246L14.4246 8.66262C14.5853 9.15704 15.046 9.4918 15.5659 9.4918H19.7193C20.8818 9.4918 21.3651 10.9793 20.4247 11.6626L17.0645 14.1039C16.6439 14.4095 16.4679 14.9512 16.6286 15.4456L17.912 19.3957C18.2713 20.5013 17.0059 21.4207 16.0654 20.7374L12.7052 18.2961C12.2846 17.9905 11.7151 17.9905 11.2945 18.2961L7.93434 20.7374C6.99388 21.4207 5.72851 20.5013 6.08773 19.3957L7.37121 15.4456C7.53186 14.9512 7.35587 14.4095 6.93529 14.1039L3.57508 11.6626C2.63463 10.9793 3.11796 9.4918 4.28043 9.4918H8.43387C8.95374 9.4918 9.41448 9.15704 9.57513 8.66262L10.8586 4.71246Z" fill="#EDA044"/>
</svg>
